<svg width="18" height="16" viewBox="0 0 18 16" fill="none" xmlns="http://www.w3.org/2000/svg">
<path d="M9.08342 13.4583L9.00008 13.5417L8.90842 13.4583C4.95008 9.86667 2.33341 7.49167 2.33341 5.08333C2.33341 3.41667 3.58341 2.16667 5.25008 2.16667C6.53341 2.16667 7.78341 3 8.22508 4.13333H9.77508C10.2167 3 11.4667 2.16667 12.7501 2.16667C14.4167 2.16667 15.6667 3.41667 15.6667 5.08333C15.6667 7.49167 13.0501 9.86667 9.08342 13.4583ZM12.7501 0.5C11.3001 0.5 9.90841 1.175 9.00008 2.23333C8.09175 1.175 6.70008 0.5 5.25008 0.5C2.68341 0.5 0.666748 2.50833 0.666748 5.08333C0.666748 8.225 3.50008 10.8 7.79175 14.6917L9.00008 15.7917L10.2084 14.6917C14.5001 10.8 17.3334 8.225 17.3334 5.08333C17.3334 2.50833 15.3167 0.5 12.7501 0.5Z" fill="#1C1C1C"/>
</svg>
