<svg width="18" height="20" viewBox="0 0 18 20" fill="none" xmlns="http://www.w3.org/2000/svg">
<path d="M13.25 5C13.25 7.34751 11.3475 9.25 9 9.25C6.65249 9.25 4.75 7.34751 4.75 5C4.75 2.65249 6.65249 0.75 9 0.75C11.3475 0.75 13.25 2.65249 13.25 5ZM9 12.625C10.0685 12.625 11.086 12.3991 12.0073 12H12.5C14.9842 12 17 14.0158 17 16.5V18.125C17 18.7459 16.4959 19.25 15.875 19.25H2.125C1.50406 19.25 1 18.7459 1 18.125V16.5C1 14.0158 3.01578 12 5.5 12H5.99325C6.91658 12.3987 7.93053 12.625 9 12.625Z" stroke="#1C1C1C" stroke-width="1.5"/>
</svg>
